<svg width="321" height="165" viewBox="0 0 321 165" fill="none" xmlns="http://www.w3.org/2000/svg">
<g filter="url(#filter0_d_14_2)">
<g filter="url(#filter1_d_14_2)">
<g filter="url(#filter2_d_14_2)">
<path d="M249.229 30.0612L249.229 30.0612L249.305 30.1398L248.587 30.833L249.305 30.1398C252.047 32.9807 252.386 37.8289 250.066 41.024L250.066 41.024C249.554 41.7286 249.29 42.6633 249.36 43.6675C249.43 44.6713 249.822 45.56 250.427 46.187L249.229 30.0612ZM249.229 30.0612C248.84 29.6583 248.31 29.4387 247.755 29.4775M249.229 30.0612L247.755 29.4775M245.493 43.9379L245.493 43.9378C245.351 41.9108 245.877 39.9269 247.013 38.3629C248.094 36.8744 247.93 34.5236 246.652 33.1997L245.493 43.9379ZM245.493 43.9379C245.634 45.965 246.432 47.8563 247.774 49.2471L245.493 43.9379ZM254.648 29.682L254.648 29.6821L254.724 29.7606C254.724 29.7606 254.724 29.7606 254.724 29.7607C256.066 31.1514 256.864 33.0429 257.006 35.0698C257.147 37.0967 256.621 39.0808 255.485 40.6449L254.648 29.682ZM254.648 29.682C254.259 29.2792 253.729 29.0595 253.174 29.0983C252.619 29.1371 252.124 29.4284 251.795 29.8814C251.175 30.7353 251.262 31.9826 251.995 32.7419C251.995 32.742 251.995 32.742 251.996 32.7421L252.071 32.8204L254.648 29.682ZM247.755 29.4775C247.2 29.5163 246.706 29.8076 246.377 30.2606L247.755 29.4775ZM250.627 49.0477C250.298 49.5013 249.803 49.7921 249.248 49.8309C248.694 49.8697 248.163 49.6501 247.774 49.2471L250.627 49.0477ZM250.627 49.0477C251.247 48.194 251.16 46.9467 250.427 46.1874L250.627 49.0477ZM252.432 37.984C252.944 37.2793 253.208 36.3443 253.138 35.3403C253.068 34.3363 252.676 33.4475 252.071 32.8205L252.432 37.984ZM252.432 37.984C251.296 39.548 250.77 41.5319 250.912 43.5588C251.053 45.5859 251.851 47.4772 253.193 48.868L252.432 37.984ZM246.577 33.1213L246.652 33.1996L246.376 30.2607C245.756 31.1146 245.843 32.3618 246.576 33.1211C246.576 33.1211 246.577 33.1212 246.577 33.1213ZM261.465 48.2899C262.085 47.4359 261.998 46.1886 261.265 45.4292L261.265 45.4291C260.66 44.8024 260.268 43.9136 260.198 42.9096C260.128 41.9056 260.392 40.9709 260.904 40.2661L260.904 40.2661C263.224 37.0711 262.885 32.2229 260.143 29.382L259.429 30.0709L260.143 29.382L260.067 29.3034L260.067 29.3033C259.678 28.9005 259.148 28.6808 258.593 28.7196C258.038 28.7584 257.544 29.0497 257.214 29.5027C256.594 30.3566 256.681 31.6041 257.415 32.3634L257.49 32.4417C258.768 33.7657 258.932 36.1165 257.851 37.6048C256.715 39.169 256.189 41.1529 256.33 43.18L256.33 43.1801C256.472 45.2072 257.27 47.0986 258.612 48.4894C259.001 48.8924 259.532 49.1118 260.086 49.073C260.64 49.0343 261.135 48.7435 261.465 48.2899ZM275.223 68.8244L266.633 69.4251C267.485 68.3102 268.189 67.046 268.717 65.6761L271.133 65.5072C274.396 65.279 276.548 62.0167 276.308 58.5909C276.069 55.1651 273.484 52.234 270.221 52.4622L269.395 52.5199L269.27 50.7271C269.2 49.7311 268.413 48.6629 267.188 48.7486L242.096 50.5032C240.871 50.5889 240.241 51.756 240.31 52.7522L240.84 60.3182C241.136 64.5529 242.898 68.3113 245.524 70.9012L236.934 71.5019C236.934 71.5019 236.934 71.5019 236.934 71.5019C235.709 71.5875 235.079 72.7549 235.148 73.7508C235.218 74.7468 236.005 75.815 237.23 75.7293L254.708 74.5071L258.041 74.274L275.518 73.0519C276.743 72.9662 277.374 71.7991 277.304 70.8029C277.235 69.8067 276.448 68.7388 275.223 68.8244ZM270.517 56.6896C271.331 56.6326 272.341 57.4252 272.441 58.8613C272.542 60.2975 271.652 61.2228 270.837 61.2798L269.748 61.3559C269.852 60.36 269.872 59.3355 269.799 58.293L269.691 56.7473L270.517 56.6896ZM254.779 43.2884C254.709 42.2842 254.973 41.3496 255.485 40.645L253.193 48.8681C253.582 49.2711 254.113 49.4906 254.667 49.4518C255.222 49.413 255.717 49.122 256.046 48.6681C256.666 47.8143 256.579 46.5675 255.846 45.8083C255.241 45.1813 254.849 44.2924 254.779 43.2884Z" fill="white" stroke="#8B4513" stroke-width="2"/>
</g>
</g>
<mask id="path-2-outside-1_14_2" maskUnits="userSpaceOnUse" x="0" y="0" width="311" height="154" fill="black">
<rect fill="white" width="311" height="154"/>
<path d="M277.915 131.432L274.811 122.105C274.734 121.985 274.714 121.794 274.701 121.666C274.6 120.712 275.522 120.293 275.904 120.253L276.158 120.226C280.486 119.771 284.956 116.985 284.534 112.975C284.313 110.874 282.967 109.085 278.968 104.1C275.944 100.428 274.423 96.9841 274.095 93.8653C273.038 83.8087 283.9 76.9397 294.593 75.8158C297.075 75.5549 298.375 75.6757 298.898 76.9722L302.116 86.1581C302.199 86.3424 302.219 86.5333 302.233 86.6606C302.34 87.679 301.425 88.1613 301.043 88.2014L300.661 88.2416C296.524 88.6764 292.802 90.6121 293.183 94.2401C293.411 96.4042 295.316 99.2284 298.679 103.058C301.767 106.723 303.287 110.167 303.622 113.35C304.732 123.915 292.722 131.484 281.71 132.642C281.074 132.709 280.501 132.769 279.858 132.772C279.03 132.859 278.193 132.239 277.915 131.432Z"/>
<path d="M262.613 135.447L245.991 136.634C245.927 136.635 245.801 136.701 245.737 136.702L233.27 137.56L233.142 137.562C232.374 137.575 231.722 136.883 231.644 136.116L228.149 86.2493L228.147 86.1213C228.134 85.3534 228.825 84.6373 229.593 84.6239L241.228 83.7807L241.484 83.7762L258.49 82.5832L258.618 82.581C259.386 82.5676 260.102 83.2592 260.179 84.026L260.886 95.1513L260.888 95.2793C260.901 96.0471 260.21 96.7633 259.443 96.8407L244.547 97.8689L244.963 103.366L256.417 103.167C257.185 103.153 257.964 103.78 257.978 104.611L257.981 104.739L258.023 114.532C257.975 115.429 257.347 116.144 256.452 116.16L245.829 116.345L246.253 122.291L261.788 121.188L261.916 121.185C262.748 121.171 263.464 121.862 263.478 122.63L264.12 133.757C264.134 134.589 263.508 135.368 262.613 135.447Z"/>
<path d="M206.716 142.988L192.656 144.005C191.822 144.043 191.045 143.493 190.944 142.667L190.928 142.54L189.713 124.764L168.971 98.6812C168.821 98.5063 168.726 98.26 168.695 98.0059C168.625 97.4342 168.872 96.8235 169.484 96.5549L180.815 91.6818C181.061 91.587 181.307 91.4923 181.498 91.4689C182.451 91.3519 183.22 91.8378 183.521 92.1878L197.307 107.84C197.6 108.127 197.814 108.294 198.004 108.27C198.957 108.153 206.796 92.1671 208.064 89.3677C208.375 88.7492 208.78 88.377 209.416 88.299C209.733 88.26 209.995 88.2923 210.392 88.3725L221.357 91.024C222.222 91.2402 222.594 91.6459 222.672 92.2811C222.898 94.1233 215.719 113.382 207.067 124.31L208.252 141.316C208.29 142.149 207.606 142.878 206.716 142.988Z"/>
<path d="M161.383 146.867L144.877 144.572C144.814 144.56 144.677 144.598 144.614 144.586L132.241 142.833L132.115 142.808C131.361 142.662 130.868 141.848 130.951 141.082L137.901 91.5789L137.925 91.4533C138.072 90.6994 138.897 90.1427 139.651 90.2892L151.207 91.8835L151.458 91.9324L168.34 94.3012L168.466 94.3256C169.22 94.4721 169.777 95.2975 169.693 96.0636L168.071 107.093L168.046 107.218C167.9 107.972 167.074 108.529 166.308 108.445L151.524 106.354L150.788 111.818L162.033 114.004C162.787 114.15 163.419 114.925 163.26 115.742L163.236 115.867L161.242 125.455C161.008 126.322 160.245 126.891 159.366 126.72L148.937 124.693L148.115 130.597L163.54 132.748L163.666 132.772C164.483 132.931 165.039 133.756 164.893 134.51L163.208 145.527C163.049 146.344 162.274 146.975 161.383 146.867Z"/>
<path d="M125.824 130.208L117.956 135.385C117.485 135.71 116.996 135.908 116.489 135.979C115.855 136.069 115.249 135.895 114.707 135.26C111.502 131.769 106.628 126.055 102.882 121.476C100.22 121.85 97.577 121.898 95.0707 121.54L96.4123 136.604C96.4469 137.31 96.02 137.951 95.3229 138.049L95.1962 138.067L81.7896 139.24C81.1558 139.329 80.5053 138.839 80.4073 138.142L80.3895 138.015L75.879 87.5278C75.8533 86.8851 76.3433 86.2346 76.977 86.1455L77.1038 86.1277L88.9084 85.0503C91.2732 83.9424 93.7548 83.2059 96.2265 82.8585C107.888 81.2196 119.621 87.9078 121.251 99.5058C121.687 102.611 121.719 108.359 118.314 113.103C122.862 119.25 126.898 127.731 126.978 128.301C127.067 128.935 126.839 129.613 125.824 130.208ZM92.9446 97.215L94.0388 109.599C95.4499 109.983 97.2868 110.177 98.998 109.936C104.132 109.215 105.444 105.217 105.034 102.302C104.455 98.1824 100.496 95.7658 95.8066 96.4249C94.9193 96.5496 93.923 96.8189 92.9446 97.215Z"/>
<path d="M204.043 66.9279L187.403 67.8239C187.339 67.8239 187.211 67.8879 187.147 67.8879L174.667 68.5279H174.539C173.771 68.5279 173.131 67.8239 173.067 67.0559L170.443 17.136V17.008C170.443 16.24 171.147 15.536 171.915 15.536L183.563 14.896H183.819L200.843 14H200.971C201.739 14 202.443 14.704 202.507 15.472L203.019 26.608V26.736C203.019 27.504 202.315 28.208 201.547 28.272L186.635 29.04L186.955 34.544H198.411C199.179 34.544 199.947 35.184 199.947 36.016V36.144L199.819 45.936C199.755 46.832 199.115 47.536 198.219 47.536H187.595L187.915 53.488L203.467 52.656H203.595C204.427 52.656 205.131 53.36 205.131 54.128L205.579 65.264C205.579 66.096 204.939 66.8639 204.043 66.9279Z"/>
<path d="M144.514 63.1546L131.875 62.0088C131.107 61.982 130.492 61.2561 130.519 60.4886L130.524 60.3607L134.888 10.5627C134.917 9.7312 135.643 9.11614 136.538 9.14741L148.157 10.1935L148.413 10.2025L166.032 11.7783C166.8 11.8051 167.479 12.5333 167.45 13.3648L167.445 13.4927L166.384 25.559C166.357 26.3265 165.629 27.0055 164.797 26.9765L164.669 26.972L149.348 25.6045L148.92 30.5205L160.073 32.0627C160.9 32.2196 161.453 32.8793 161.426 33.6469L161.42 33.8388L159.637 44.5351C159.547 45.3004 158.821 45.9154 157.989 45.8864L157.861 45.8819L147.665 44.4372L146.165 61.7393C146.072 62.5686 145.346 63.1837 144.514 63.1546Z"/>
<path d="M122.594 55.9599L110.434 60.3119C110.114 60.4399 109.73 60.5039 109.41 60.5039C108.386 60.5039 107.618 59.9279 107.426 59.4799L93.2185 27.608C93.0265 27.16 92.8345 26.968 92.6425 26.968C92.1305 26.968 91.4264 28.76 87.3944 38.936L94.6905 39.3199C95.5225 39.3199 96.1625 40.024 96.1625 40.856V40.9839L95.3945 52.44C95.3305 53.208 94.6905 53.912 93.8585 53.912H93.7305L81.8905 53.336C80.6745 56.408 79.7786 58.7759 79.5866 59.3519C79.2666 60.1199 78.7547 60.568 77.9867 60.568C77.6667 60.568 77.3467 60.5039 76.9627 60.3759L67.171 57.56C65.955 57.176 65.4431 56.4079 65.4431 55.4479C65.4431 53.4639 76.3864 17.496 86.8184 7.768C87.2024 7.448 88.1625 7 89.1225 7H98.4025C99.7465 7 100.834 7.64 101.09 8.216L123.298 53.4C123.426 53.656 123.554 54.04 123.554 54.36C123.554 55 123.234 55.7039 122.594 55.9599Z"/>
<path d="M53.8231 46.0667L59.77 53.8913C60.0858 54.2993 60.3383 54.7162 60.4007 55.1598C60.4808 55.7302 60.3075 56.3362 59.7083 57.1314C53.7166 65.0826 46.1041 69.3193 38.4989 70.3882C23.9855 72.4279 9.61568 63.0727 7.35328 46.9749C4.65443 27.7717 17.8297 17.1305 32.8501 15.0195C38.4906 14.2268 44.0014 14.8095 48.2237 16.8012C48.7118 17.0558 49.1267 17.7084 49.2158 18.3422C49.2425 18.5323 49.2603 18.659 49.2236 18.8581L47.0818 29.3705C46.963 29.9042 46.4094 30.5637 45.7122 30.6616C45.4587 30.6973 45.1963 30.6695 44.9883 30.5695C42.8455 29.5781 39.145 28.9995 35.5325 29.5072C27.547 30.6294 23.6152 36.2231 24.7018 43.9551C25.7529 51.4336 31.9991 54.9505 38.6537 54.0153C43.0901 53.3918 47.8208 50.7234 51.2168 45.916C51.4347 45.6269 51.7971 45.4467 52.114 45.4021C52.7478 45.3131 53.4984 45.5954 53.8231 46.0667Z"/>
<path d="M7.89371 17.8467C7.53168 16.31 9.00951 14.9794 10.5 15.5L20.0195 18.8255C21.4546 19.3268 21.8279 21.1827 20.6982 22.1999L13.4909 28.6894C12.3612 29.7066 10.5545 29.1414 10.2059 27.6617L7.89371 17.8467Z"/>
<path d="M41 7.76799C41.9665 6.51953 43.4666 7.014 44 8.5L49.15 17.409C49.6635 18.8398 48.4562 20.2978 46.9547 20.06L37.3757 18.5429C35.8743 18.3051 35.1765 16.5453 36.1071 15.3432L41 7.76799Z"/>
</mask>
<path d="M277.915 131.432L274.811 122.105C274.734 121.985 274.714 121.794 274.701 121.666C274.6 120.712 275.522 120.293 275.904 120.253L276.158 120.226C280.486 119.771 284.956 116.985 284.534 112.975C284.313 110.874 282.967 109.085 278.968 104.1C275.944 100.428 274.423 96.9841 274.095 93.8653C273.038 83.8087 283.9 76.9397 294.593 75.8158C297.075 75.5549 298.375 75.6757 298.898 76.9722L302.116 86.1581C302.199 86.3424 302.219 86.5333 302.233 86.6606C302.34 87.679 301.425 88.1613 301.043 88.2014L300.661 88.2416C296.524 88.6764 292.802 90.6121 293.183 94.2401C293.411 96.4042 295.316 99.2284 298.679 103.058C301.767 106.723 303.287 110.167 303.622 113.35C304.732 123.915 292.722 131.484 281.71 132.642C281.074 132.709 280.501 132.769 279.858 132.772C279.03 132.859 278.193 132.239 277.915 131.432Z" fill="#8B4513"/>
<path d="M262.613 135.447L245.991 136.634C245.927 136.635 245.801 136.701 245.737 136.702L233.27 137.56L233.142 137.562C232.374 137.575 231.722 136.883 231.644 136.116L228.149 86.2493L228.147 86.1213C228.134 85.3534 228.825 84.6373 229.593 84.6239L241.228 83.7807L241.484 83.7762L258.49 82.5832L258.618 82.581C259.386 82.5676 260.102 83.2592 260.179 84.026L260.886 95.1513L260.888 95.2793C260.901 96.0471 260.21 96.7633 259.443 96.8407L244.547 97.8689L244.963 103.366L256.417 103.167C257.185 103.153 257.964 103.78 257.978 104.611L257.981 104.739L258.023 114.532C257.975 115.429 257.347 116.144 256.452 116.16L245.829 116.345L246.253 122.291L261.788 121.188L261.916 121.185C262.748 121.171 263.464 121.862 263.478 122.63L264.12 133.757C264.134 134.589 263.508 135.368 262.613 135.447Z" fill="#D1997B"/>
<path d="M206.716 142.988L192.656 144.005C191.822 144.043 191.045 143.493 190.944 142.667L190.928 142.54L189.713 124.764L168.971 98.6812C168.821 98.5063 168.726 98.26 168.695 98.0059C168.625 97.4342 168.872 96.8235 169.484 96.5549L180.815 91.6818C181.061 91.587 181.307 91.4923 181.498 91.4689C182.451 91.3519 183.22 91.8378 183.521 92.1878L197.307 107.84C197.6 108.127 197.814 108.294 198.004 108.27C198.957 108.153 206.796 92.1671 208.064 89.3677C208.375 88.7492 208.78 88.377 209.416 88.299C209.733 88.26 209.995 88.2923 210.392 88.3725L221.357 91.024C222.222 91.2402 222.594 91.6459 222.672 92.2811C222.898 94.1233 215.719 113.382 207.067 124.31L208.252 141.316C208.29 142.149 207.606 142.878 206.716 142.988Z" fill="#8B4513"/>
<path d="M161.383 146.867L144.877 144.572C144.814 144.56 144.677 144.598 144.614 144.586L132.241 142.833L132.115 142.808C131.361 142.662 130.868 141.848 130.951 141.082L137.901 91.5789L137.925 91.4533C138.072 90.6994 138.897 90.1427 139.651 90.2892L151.207 91.8835L151.458 91.9324L168.34 94.3012L168.466 94.3256C169.22 94.4721 169.777 95.2975 169.693 96.0636L168.071 107.093L168.046 107.218C167.9 107.972 167.074 108.529 166.308 108.445L151.524 106.354L150.788 111.818L162.033 114.004C162.787 114.15 163.419 114.925 163.26 115.742L163.236 115.867L161.242 125.455C161.008 126.322 160.245 126.891 159.366 126.72L148.937 124.693L148.115 130.597L163.54 132.748L163.666 132.772C164.483 132.931 165.039 133.756 164.893 134.51L163.208 145.527C163.049 146.344 162.274 146.975 161.383 146.867Z" fill="#D1997B"/>
<path d="M125.824 130.208L117.956 135.385C117.485 135.71 116.996 135.908 116.489 135.979C115.855 136.069 115.249 135.895 114.707 135.26C111.502 131.769 106.628 126.055 102.882 121.476C100.22 121.85 97.577 121.898 95.0707 121.54L96.4123 136.604C96.4469 137.31 96.02 137.951 95.3229 138.049L95.1962 138.067L81.7896 139.24C81.1558 139.329 80.5053 138.839 80.4073 138.142L80.3895 138.015L75.879 87.5278C75.8533 86.8851 76.3433 86.2346 76.977 86.1455L77.1038 86.1277L88.9084 85.0503C91.2732 83.9424 93.7548 83.2059 96.2265 82.8585C107.888 81.2196 119.621 87.9078 121.251 99.5058C121.687 102.611 121.719 108.359 118.314 113.103C122.862 119.25 126.898 127.731 126.978 128.301C127.067 128.935 126.839 129.613 125.824 130.208ZM92.9446 97.215L94.0388 109.599C95.4499 109.983 97.2868 110.177 98.998 109.936C104.132 109.215 105.444 105.217 105.034 102.302C104.455 98.1824 100.496 95.7658 95.8066 96.4249C94.9193 96.5496 93.923 96.8189 92.9446 97.215Z" fill="#8B4513"/>
<path d="M204.043 66.9279L187.403 67.8239C187.339 67.8239 187.211 67.8879 187.147 67.8879L174.667 68.5279H174.539C173.771 68.5279 173.131 67.8239 173.067 67.0559L170.443 17.136V17.008C170.443 16.24 171.147 15.536 171.915 15.536L183.563 14.896H183.819L200.843 14H200.971C201.739 14 202.443 14.704 202.507 15.472L203.019 26.608V26.736C203.019 27.504 202.315 28.208 201.547 28.272L186.635 29.04L186.955 34.544H198.411C199.179 34.544 199.947 35.184 199.947 36.016V36.144L199.819 45.936C199.755 46.832 199.115 47.536 198.219 47.536H187.595L187.915 53.488L203.467 52.656H203.595C204.427 52.656 205.131 53.36 205.131 54.128L205.579 65.264C205.579 66.096 204.939 66.8639 204.043 66.9279Z" fill="#D1997B"/>
<path d="M144.514 63.1546L131.875 62.0088C131.107 61.982 130.492 61.2561 130.519 60.4886L130.524 60.3607L134.888 10.5627C134.917 9.7312 135.643 9.11614 136.538 9.14741L148.157 10.1935L148.413 10.2025L166.032 11.7783C166.8 11.8051 167.479 12.5333 167.45 13.3648L167.445 13.4927L166.384 25.559C166.357 26.3265 165.629 27.0055 164.797 26.9765L164.669 26.972L149.348 25.6045L148.92 30.5205L160.073 32.0627C160.9 32.2196 161.453 32.8793 161.426 33.6469L161.42 33.8388L159.637 44.5351C159.547 45.3004 158.821 45.9154 157.989 45.8864L157.861 45.8819L147.665 44.4372L146.165 61.7393C146.072 62.5686 145.346 63.1837 144.514 63.1546Z" fill="#8B4513"/>
<path d="M122.594 55.9599L110.434 60.3119C110.114 60.4399 109.73 60.5039 109.41 60.5039C108.386 60.5039 107.618 59.9279 107.426 59.4799L93.2185 27.608C93.0265 27.16 92.8345 26.968 92.6425 26.968C92.1305 26.968 91.4264 28.76 87.3944 38.936L94.6905 39.3199C95.5225 39.3199 96.1625 40.024 96.1625 40.856V40.9839L95.3945 52.44C95.3305 53.208 94.6905 53.912 93.8585 53.912H93.7305L81.8905 53.336C80.6745 56.408 79.7786 58.7759 79.5866 59.3519C79.2666 60.1199 78.7547 60.568 77.9867 60.568C77.6667 60.568 77.3467 60.5039 76.9627 60.3759L67.171 57.56C65.955 57.176 65.4431 56.4079 65.4431 55.4479C65.4431 53.4639 76.3864 17.496 86.8184 7.768C87.2024 7.448 88.1625 7 89.1225 7H98.4025C99.7465 7 100.834 7.64 101.09 8.216L123.298 53.4C123.426 53.656 123.554 54.04 123.554 54.36C123.554 55 123.234 55.7039 122.594 55.9599Z" fill="#D1997B"/>
<path d="M53.8231 46.0667L59.77 53.8913C60.0858 54.2993 60.3383 54.7162 60.4007 55.1598C60.4808 55.7302 60.3075 56.3362 59.7083 57.1314C53.7166 65.0826 46.1041 69.3193 38.4989 70.3882C23.9855 72.4279 9.61568 63.0727 7.35328 46.9749C4.65443 27.7717 17.8297 17.1305 32.8501 15.0195C38.4906 14.2268 44.0014 14.8095 48.2237 16.8012C48.7118 17.0558 49.1267 17.7084 49.2158 18.3422C49.2425 18.5323 49.2603 18.659 49.2236 18.8581L47.0818 29.3705C46.963 29.9042 46.4094 30.5637 45.7122 30.6616C45.4587 30.6973 45.1963 30.6695 44.9883 30.5695C42.8455 29.5781 39.145 28.9995 35.5325 29.5072C27.547 30.6294 23.6152 36.2231 24.7018 43.9551C25.7529 51.4336 31.9991 54.9505 38.6537 54.0153C43.0901 53.3918 47.8208 50.7234 51.2168 45.916C51.4347 45.6269 51.7971 45.4467 52.114 45.4021C52.7478 45.3131 53.4984 45.5954 53.8231 46.0667Z" fill="#8B4513"/>
<path d="M7.89371 17.8467C7.53168 16.31 9.00951 14.9794 10.5 15.5L20.0195 18.8255C21.4546 19.3268 21.8279 21.1827 20.6982 22.1999L13.4909 28.6894C12.3612 29.7066 10.5545 29.1414 10.2059 27.6617L7.89371 17.8467Z" fill="#8B4513"/>
<path d="M41 7.76799C41.9665 6.51953 43.4666 7.014 44 8.5L49.15 17.409C49.6635 18.8398 48.4562 20.2978 46.9547 20.06L37.3757 18.5429C35.8743 18.3051 35.1765 16.5453 36.1071 15.3432L41 7.76799Z" fill="#8B4513"/>
<path d="M277.915 131.432L274.811 122.105C274.734 121.985 274.714 121.794 274.701 121.666C274.6 120.712 275.522 120.293 275.904 120.253L276.158 120.226C280.486 119.771 284.956 116.985 284.534 112.975C284.313 110.874 282.967 109.085 278.968 104.1C275.944 100.428 274.423 96.9841 274.095 93.8653C273.038 83.8087 283.9 76.9397 294.593 75.8158C297.075 75.5549 298.375 75.6757 298.898 76.9722L302.116 86.1581C302.199 86.3424 302.219 86.5333 302.233 86.6606C302.34 87.679 301.425 88.1613 301.043 88.2014L300.661 88.2416C296.524 88.6764 292.802 90.6121 293.183 94.2401C293.411 96.4042 295.316 99.2284 298.679 103.058C301.767 106.723 303.287 110.167 303.622 113.35C304.732 123.915 292.722 131.484 281.71 132.642C281.074 132.709 280.501 132.769 279.858 132.772C279.03 132.859 278.193 132.239 277.915 131.432Z" stroke="white" stroke-width="14" mask="url(#path-2-outside-1_14_2)"/>
<path d="M262.613 135.447L245.991 136.634C245.927 136.635 245.801 136.701 245.737 136.702L233.27 137.56L233.142 137.562C232.374 137.575 231.722 136.883 231.644 136.116L228.149 86.2493L228.147 86.1213C228.134 85.3534 228.825 84.6373 229.593 84.6239L241.228 83.7807L241.484 83.7762L258.49 82.5832L258.618 82.581C259.386 82.5676 260.102 83.2592 260.179 84.026L260.886 95.1513L260.888 95.2793C260.901 96.0471 260.21 96.7633 259.443 96.8407L244.547 97.8689L244.963 103.366L256.417 103.167C257.185 103.153 257.964 103.78 257.978 104.611L257.981 104.739L258.023 114.532C257.975 115.429 257.347 116.144 256.452 116.16L245.829 116.345L246.253 122.291L261.788 121.188L261.916 121.185C262.748 121.171 263.464 121.862 263.478 122.63L264.12 133.757C264.134 134.589 263.508 135.368 262.613 135.447Z" stroke="white" stroke-width="14" mask="url(#path-2-outside-1_14_2)"/>
<path d="M206.716 142.988L192.656 144.005C191.822 144.043 191.045 143.493 190.944 142.667L190.928 142.54L189.713 124.764L168.971 98.6812C168.821 98.5063 168.726 98.26 168.695 98.0059C168.625 97.4342 168.872 96.8235 169.484 96.5549L180.815 91.6818C181.061 91.587 181.307 91.4923 181.498 91.4689C182.451 91.3519 183.22 91.8378 183.521 92.1878L197.307 107.84C197.6 108.127 197.814 108.294 198.004 108.27C198.957 108.153 206.796 92.1671 208.064 89.3677C208.375 88.7492 208.78 88.377 209.416 88.299C209.733 88.26 209.995 88.2923 210.392 88.3725L221.357 91.024C222.222 91.2402 222.594 91.6459 222.672 92.2811C222.898 94.1233 215.719 113.382 207.067 124.31L208.252 141.316C208.29 142.149 207.606 142.878 206.716 142.988Z" stroke="white" stroke-width="14" mask="url(#path-2-outside-1_14_2)"/>
<path d="M161.383 146.867L144.877 144.572C144.814 144.56 144.677 144.598 144.614 144.586L132.241 142.833L132.115 142.808C131.361 142.662 130.868 141.848 130.951 141.082L137.901 91.5789L137.925 91.4533C138.072 90.6994 138.897 90.1427 139.651 90.2892L151.207 91.8835L151.458 91.9324L168.34 94.3012L168.466 94.3256C169.22 94.4721 169.777 95.2975 169.693 96.0636L168.071 107.093L168.046 107.218C167.9 107.972 167.074 108.529 166.308 108.445L151.524 106.354L150.788 111.818L162.033 114.004C162.787 114.15 163.419 114.925 163.26 115.742L163.236 115.867L161.242 125.455C161.008 126.322 160.245 126.891 159.366 126.72L148.937 124.693L148.115 130.597L163.54 132.748L163.666 132.772C164.483 132.931 165.039 133.756 164.893 134.51L163.208 145.527C163.049 146.344 162.274 146.975 161.383 146.867Z" stroke="white" stroke-width="14" mask="url(#path-2-outside-1_14_2)"/>
<path d="M125.824 130.208L117.956 135.385C117.485 135.71 116.996 135.908 116.489 135.979C115.855 136.069 115.249 135.895 114.707 135.26C111.502 131.769 106.628 126.055 102.882 121.476C100.22 121.85 97.577 121.898 95.0707 121.54L96.4123 136.604C96.4469 137.31 96.02 137.951 95.3229 138.049L95.1962 138.067L81.7896 139.24C81.1558 139.329 80.5053 138.839 80.4073 138.142L80.3895 138.015L75.879 87.5278C75.8533 86.8851 76.3433 86.2346 76.977 86.1455L77.1038 86.1277L88.9084 85.0503C91.2732 83.9424 93.7548 83.2059 96.2265 82.8585C107.888 81.2196 119.621 87.9078 121.251 99.5058C121.687 102.611 121.719 108.359 118.314 113.103C122.862 119.25 126.898 127.731 126.978 128.301C127.067 128.935 126.839 129.613 125.824 130.208ZM92.9446 97.215L94.0388 109.599C95.4499 109.983 97.2868 110.177 98.998 109.936C104.132 109.215 105.444 105.217 105.034 102.302C104.455 98.1824 100.496 95.7658 95.8066 96.4249C94.9193 96.5496 93.923 96.8189 92.9446 97.215Z" stroke="white" stroke-width="14" mask="url(#path-2-outside-1_14_2)"/>
<path d="M204.043 66.9279L187.403 67.8239C187.339 67.8239 187.211 67.8879 187.147 67.8879L174.667 68.5279H174.539C173.771 68.5279 173.131 67.8239 173.067 67.0559L170.443 17.136V17.008C170.443 16.24 171.147 15.536 171.915 15.536L183.563 14.896H183.819L200.843 14H200.971C201.739 14 202.443 14.704 202.507 15.472L203.019 26.608V26.736C203.019 27.504 202.315 28.208 201.547 28.272L186.635 29.04L186.955 34.544H198.411C199.179 34.544 199.947 35.184 199.947 36.016V36.144L199.819 45.936C199.755 46.832 199.115 47.536 198.219 47.536H187.595L187.915 53.488L203.467 52.656H203.595C204.427 52.656 205.131 53.36 205.131 54.128L205.579 65.264C205.579 66.096 204.939 66.8639 204.043 66.9279Z" stroke="white" stroke-width="14" mask="url(#path-2-outside-1_14_2)"/>
<path d="M144.514 63.1546L131.875 62.0088C131.107 61.982 130.492 61.2561 130.519 60.4886L130.524 60.3607L134.888 10.5627C134.917 9.7312 135.643 9.11614 136.538 9.14741L148.157 10.1935L148.413 10.2025L166.032 11.7783C166.8 11.8051 167.479 12.5333 167.45 13.3648L167.445 13.4927L166.384 25.559C166.357 26.3265 165.629 27.0055 164.797 26.9765L164.669 26.972L149.348 25.6045L148.92 30.5205L160.073 32.0627C160.9 32.2196 161.453 32.8793 161.426 33.6469L161.42 33.8388L159.637 44.5351C159.547 45.3004 158.821 45.9154 157.989 45.8864L157.861 45.8819L147.665 44.4372L146.165 61.7393C146.072 62.5686 145.346 63.1837 144.514 63.1546Z" stroke="white" stroke-width="14" mask="url(#path-2-outside-1_14_2)"/>
<path d="M122.594 55.9599L110.434 60.3119C110.114 60.4399 109.73 60.5039 109.41 60.5039C108.386 60.5039 107.618 59.9279 107.426 59.4799L93.2185 27.608C93.0265 27.16 92.8345 26.968 92.6425 26.968C92.1305 26.968 91.4264 28.76 87.3944 38.936L94.6905 39.3199C95.5225 39.3199 96.1625 40.024 96.1625 40.856V40.9839L95.3945 52.44C95.3305 53.208 94.6905 53.912 93.8585 53.912H93.7305L81.8905 53.336C80.6745 56.408 79.7786 58.7759 79.5866 59.3519C79.2666 60.1199 78.7547 60.568 77.9867 60.568C77.6667 60.568 77.3467 60.5039 76.9627 60.3759L67.171 57.56C65.955 57.176 65.4431 56.4079 65.4431 55.4479C65.4431 53.4639 76.3864 17.496 86.8184 7.768C87.2024 7.448 88.1625 7 89.1225 7H98.4025C99.7465 7 100.834 7.64 101.09 8.216L123.298 53.4C123.426 53.656 123.554 54.04 123.554 54.36C123.554 55 123.234 55.7039 122.594 55.9599Z" stroke="white" stroke-width="14" mask="url(#path-2-outside-1_14_2)"/>
<path d="M53.8231 46.0667L59.77 53.8913C60.0858 54.2993 60.3383 54.7162 60.4007 55.1598C60.4808 55.7302 60.3075 56.3362 59.7083 57.1314C53.7166 65.0826 46.1041 69.3193 38.4989 70.3882C23.9855 72.4279 9.61568 63.0727 7.35328 46.9749C4.65443 27.7717 17.8297 17.1305 32.8501 15.0195C38.4906 14.2268 44.0014 14.8095 48.2237 16.8012C48.7118 17.0558 49.1267 17.7084 49.2158 18.3422C49.2425 18.5323 49.2603 18.659 49.2236 18.8581L47.0818 29.3705C46.963 29.9042 46.4094 30.5637 45.7122 30.6616C45.4587 30.6973 45.1963 30.6695 44.9883 30.5695C42.8455 29.5781 39.145 28.9995 35.5325 29.5072C27.547 30.6294 23.6152 36.2231 24.7018 43.9551C25.7529 51.4336 31.9991 54.9505 38.6537 54.0153C43.0901 53.3918 47.8208 50.7234 51.2168 45.916C51.4347 45.6269 51.7971 45.4467 52.114 45.4021C52.7478 45.3131 53.4984 45.5954 53.8231 46.0667Z" stroke="white" stroke-width="14" mask="url(#path-2-outside-1_14_2)"/>
<path d="M7.89371 17.8467C7.53168 16.31 9.00951 14.9794 10.5 15.5L20.0195 18.8255C21.4546 19.3268 21.8279 21.1827 20.6982 22.1999L13.4909 28.6894C12.3612 29.7066 10.5545 29.1414 10.2059 27.6617L7.89371 17.8467Z" stroke="white" stroke-width="14" mask="url(#path-2-outside-1_14_2)"/>
<path d="M41 7.76799C41.9665 6.51953 43.4666 7.014 44 8.5L49.15 17.409C49.6635 18.8398 48.4562 20.2978 46.9547 20.06L37.3757 18.5429C35.8743 18.3051 35.1765 16.5453 36.1071 15.3432L41 7.76799Z" stroke="white" stroke-width="14" mask="url(#path-2-outside-1_14_2)"/>
</g>
<defs>
<filter id="filter0_d_14_2" x="0.000854492" y="0" width="320.695" height="164.882" filterUnits="userSpaceOnUse" color-interpolation-filters="sRGB">
<feFlood flood-opacity="0" result="BackgroundImageFix"/>
<feColorMatrix in="SourceAlpha" type="matrix" values="0 0 0 0 0 0 0 0 0 0 0 0 0 0 0 0 0 0 127 0" result="hardAlpha"/>
<feOffset dx="10" dy="11"/>
<feComposite in2="hardAlpha" operator="out"/>
<feColorMatrix type="matrix" values="0 0 0 0 0 0 0 0 0 0 0 0 0 0 0 0 0 0 0.25 0"/>
<feBlend mode="normal" in2="BackgroundImageFix" result="effect1_dropShadow_14_2"/>
<feBlend mode="normal" in="SourceGraphic" in2="effect1_dropShadow_14_2" result="shape"/>
</filter>
<filter id="filter1_d_14_2" x="227" y="26" width="59.2314" height="59.2314" filterUnits="userSpaceOnUse" color-interpolation-filters="sRGB">
<feFlood flood-opacity="0" result="BackgroundImageFix"/>
<feColorMatrix in="SourceAlpha" type="matrix" values="0 0 0 0 0 0 0 0 0 0 0 0 0 0 0 0 0 0 127 0" result="hardAlpha"/>
<feOffset dy="4"/>
<feGaussianBlur stdDeviation="2"/>
<feComposite in2="hardAlpha" operator="out"/>
<feColorMatrix type="matrix" values="0 0 0 0 0 0 0 0 0 0 0 0 0 0 0 0 0 0 0.25 0"/>
<feBlend mode="normal" in2="BackgroundImageFix" result="effect1_dropShadow_14_2"/>
<feBlend mode="normal" in="SourceGraphic" in2="effect1_dropShadow_14_2" result="shape"/>
</filter>
<filter id="filter2_d_14_2" x="234.144" y="27.7152" width="54.1654" height="60.0193" filterUnits="userSpaceOnUse" color-interpolation-filters="sRGB">
<feFlood flood-opacity="0" result="BackgroundImageFix"/>
<feColorMatrix in="SourceAlpha" type="matrix" values="0 0 0 0 0 0 0 0 0 0 0 0 0 0 0 0 0 0 127 0" result="hardAlpha"/>
<feOffset dx="10" dy="11"/>
<feComposite in2="hardAlpha" operator="out"/>
<feColorMatrix type="matrix" values="0 0 0 0 0 0 0 0 0 0 0 0 0 0 0 0 0 0 0.25 0"/>
<feBlend mode="normal" in2="BackgroundImageFix" result="effect1_dropShadow_14_2"/>
<feBlend mode="normal" in="SourceGraphic" in2="effect1_dropShadow_14_2" result="shape"/>
</filter>
</defs>
</svg>
